# xmcd
#
# Track frame offsets:
#	150
#	16535
#	32977
#	52320
#	69247
#	83047
#	98652
#	111579
#	128315
#	143887
#	163457
#
# Disc length: 2363 seconds
#
# Revision: 1
# Processed by: cddbd v1.5.2PL0 Copyright (c) Steve Scherf et al.
# Submitted via: audiograbber 1.83.01
#
DISCID=9009390b
DTITLE=six mile grove - friction
DYEAR=2000
DGENRE=Country
TTITLE0=friction
TTITLE1=homewreckers
TTITLE2=in my head
TTITLE3=disrupted and annoyed
TTITLE4=collapsed
TTITLE5=the ramble
TTITLE6=that girl
TTITLE7=in between
TTITLE8=she waits
TTITLE9=argument song
TTITLE10=i can't help myself
EXTD=
EXTT0=
EXTT1=
EXTT2=
EXTT3=
EXTT4=
EXTT5=
EXTT6=
EXTT7=
EXTT8=
EXTT9=
EXTT10=
PLAYORDER=
